<?xml version="1.0" encoding="UTF-8"?> <svg xmlns="http://www.w3.org/2000/svg" width="60" height="60" viewBox="0 0 60 60" fill="none"><rect width="60" height="60" rx="20" fill="#D6E2E9"></rect><g clip-path="url(#clip0_319_1775)"><path d="M36.9214 31.6671L36.77 33.0267C36.7136 32.9945 36.6567 32.9655 36.5965 32.9371L35.9462 30.0996C35.7073 28.7464 34.6875 27.753 33.1995 27.804H26.9807C25.6355 27.804 24.4633 28.3147 24.2356 30.0996L23.5853 32.9371C23.5246 32.9655 23.4682 32.9945 23.4113 33.0267L23.2594 31.6671C23.2594 31.6671 21.091 30.7118 20.576 31.6671C20.06 32.6229 20.576 32.9671 20.576 32.9671L23.2739 33.1127C22.7691 33.4488 22.4458 33.96 22.4458 34.5346V37.1363C22.4458 37.7828 22.8555 38.3504 23.4715 38.6775V40.4259C23.4715 41.0182 24.2012 41.4956 25.1028 41.4956C26.0044 41.4956 26.7342 41.0166 26.7342 40.4259V38.9717H33.1668V40.4254C33.1668 41.0176 33.8971 41.495 34.7981 41.495C35.7003 41.495 36.4295 41.016 36.4295 40.4254V38.8031C37.2001 38.5137 37.7349 37.8752 37.7349 37.1363V34.5341C37.7349 33.9595 37.4111 33.4483 36.908 33.1121L39.6058 32.9666C39.6058 32.9666 39.7148 32.6224 39.6058 31.6666C39.4973 30.7107 36.9214 31.6671 36.9214 31.6671ZM27.0161 36.6299H24.0718V35.2316H27.0161V36.6299ZM32.7753 36.6766H27.7314V36.0645H32.7753V36.6766ZM32.8258 35.8862H27.7829V35.2751H32.8258V35.8862ZM24.2753 32.5429C24.2308 32.5429 24.1862 32.5477 24.1427 32.5494L24.8429 29.7463C24.9729 28.9515 25.8552 28.2647 26.7229 28.2647H33.4589C34.3256 28.2647 35.1203 28.8227 35.3384 29.7463L36.038 32.5494C35.9946 32.5477 35.9494 32.5429 35.9059 32.5429H24.2753ZM36.516 36.6299H33.5706V35.2316H36.516V36.6299Z" fill="#4A4A4A"></path><path d="M30.1044 17.7859L15.5 23.9957V42.2146H18.6177V26.0679H41.3823V42.2146H44.5V23.9957L30.1044 17.7859Z" fill="#4A4A4A"></path></g><defs><clipPath id="clip0_319_1775"><rect width="29" height="29" fill="white" transform="translate(15.5 15.5)"></rect></clipPath></defs></svg> 