<?xml version="1.0" encoding="UTF-8"?> <svg xmlns="http://www.w3.org/2000/svg" width="50" height="50" viewBox="0 0 50 50" fill="none"><rect width="50" height="50" rx="25" fill="#487498"></rect><path d="M24.516 34.324C23.66 34.324 22.856 34.164 22.104 33.844C21.352 33.516 20.7 33.052 20.148 32.452C19.604 31.852 19.208 31.144 18.96 30.328L21.384 29.656C21.616 30.4 22.02 30.972 22.596 31.372C23.172 31.764 23.812 31.956 24.516 31.948C25.148 31.94 25.704 31.792 26.184 31.504C26.664 31.216 27.04 30.828 27.312 30.34C27.584 29.844 27.72 29.276 27.72 28.636C27.72 27.676 27.42 26.884 26.82 26.26C26.228 25.636 25.452 25.324 24.492 25.324C24.22 25.324 23.94 25.364 23.652 25.444C23.372 25.524 23.108 25.628 22.86 25.756L21.684 23.776L27.78 18.388L28.044 19.108H19.644V16.72H30.036V19.108L24.972 23.98L24.948 23.164C26.036 23.164 26.98 23.408 27.78 23.896C28.58 24.376 29.196 25.032 29.628 25.864C30.068 26.688 30.288 27.612 30.288 28.636C30.288 29.74 30.028 30.72 29.508 31.576C28.996 32.432 28.304 33.104 27.432 33.592C26.568 34.08 25.596 34.324 24.516 34.324Z" fill="white"></path></svg> 