<?xml version="1.0" encoding="UTF-8"?> <svg xmlns="http://www.w3.org/2000/svg" width="100" height="100" viewBox="0 0 100 100" fill="none"><rect width="100" height="100" rx="20" fill="#487498"></rect><g clip-path="url(#clip0_93_2288)"><path d="M62.1723 52.9318L61.906 55.3229C61.8068 55.2662 61.7067 55.2152 61.601 55.1652L60.4574 50.1752C60.0371 47.7954 58.2438 46.0484 55.627 46.1381H44.6904C42.3248 46.1381 40.2632 47.0362 39.8628 50.1752L38.7192 55.1652C38.6125 55.2152 38.5133 55.2662 38.4132 55.3229L38.146 52.9318C38.146 52.9318 34.3327 51.2518 33.427 52.9318C32.5195 54.6127 33.427 55.2181 33.427 55.2181L38.1715 55.474C37.2838 56.0652 36.7153 56.9642 36.7153 57.9746V62.55C36.7153 63.6871 37.4358 64.6852 38.519 65.2604V68.3352C38.519 69.3768 39.8024 70.2163 41.388 70.2163C42.9735 70.2163 44.2569 69.374 44.2569 68.3352V65.7779H55.5694V68.3342C55.5694 69.3759 56.8537 70.2154 58.4383 70.2154C60.0248 70.2154 61.3073 69.373 61.3073 68.3342V65.4813C62.6624 64.9723 63.603 63.8495 63.603 62.55V57.9737C63.603 56.9632 63.0336 56.0642 62.1487 55.473L66.8932 55.2171C66.8932 55.2171 67.0849 54.6118 66.8932 52.9308C66.7024 51.2499 62.1723 52.9318 62.1723 52.9318ZM44.7527 61.6595H39.5748V59.2004H44.7527V61.6595ZM54.8809 61.7417H46.0106V60.6651H54.8809V61.7417ZM54.9697 60.3516H46.1012V59.2769H54.9697V60.3516ZM39.9327 54.472C39.8543 54.472 39.7759 54.4805 39.6994 54.4834L40.9309 49.5538C41.1594 48.1562 42.711 46.9483 44.2371 46.9483H56.0831C57.6073 46.9483 59.0049 47.9295 59.3883 49.5538L60.6188 54.4834C60.5424 54.4805 60.463 54.472 60.3865 54.472H39.9327ZM61.4593 61.6595H56.2795V59.2004H61.4593V61.6595Z" fill="white"></path><path d="M50.1837 28.5201L24.5 39.4407V71.4808H29.9829V43.085H70.0171V71.4808H75.5V39.4407L50.1837 28.5201Z" fill="white"></path></g><defs><clipPath id="clip0_93_2288"><rect width="51" height="51" fill="white" transform="translate(24.5 24.5)"></rect></clipPath></defs></svg> 