<?xml version="1.0" encoding="UTF-8"?> <svg xmlns="http://www.w3.org/2000/svg" width="15" height="15" viewBox="0 0 15 15" fill="none"><rect width="15" height="15" rx="7.5" fill="#487498"></rect><path d="M6.64145 4.57583L6.92539 5.08461C7.18163 5.54376 7.07877 6.14608 6.67518 6.54967C6.67518 6.54967 6.1857 7.03923 7.07322 7.92679C7.96047 8.81404 8.45034 8.32483 8.45034 8.32483C8.85393 7.92123 9.45624 7.81838 9.91539 8.07462L10.4242 8.35856C11.1175 8.74549 11.1994 9.71779 10.59 10.3272C10.2238 10.6934 9.77517 10.9784 9.27927 10.9971C8.44447 11.0288 7.02676 10.8175 5.60462 9.39539C4.1825 7.97325 3.97122 6.55554 4.00287 5.72073C4.02167 5.22483 4.3066 4.77623 4.67279 4.41004C5.28221 3.80062 6.25451 3.8825 6.64145 4.57583Z" fill="white"></path></svg> 