<?xml version="1.0" encoding="UTF-8"?> <svg xmlns="http://www.w3.org/2000/svg" width="40" height="40" viewBox="0 0 40 40" fill="none"><rect width="40" height="40" rx="20" fill="#81CFFF"></rect><g clip-path="url(#clip0_82_223)"><path d="M28.3335 15.8334H24.1668V11.6667C24.1668 11.4457 24.079 11.2337 23.9228 11.0775C23.7665 10.9212 23.5545 10.8334 23.3335 10.8334H16.6668C16.4458 10.8334 16.2339 10.9212 16.0776 11.0775C15.9213 11.2337 15.8335 11.4457 15.8335 11.6667V15.8334H11.6668C11.4458 15.8334 11.2339 15.9212 11.0776 16.0775C10.9213 16.2337 10.8335 16.4457 10.8335 16.6667V28.3334C10.8335 28.5544 10.9213 28.7664 11.0776 28.9226C11.2339 29.0789 11.4458 29.1667 11.6668 29.1667H28.3335C28.5545 29.1667 28.7665 29.0789 28.9228 28.9226C29.079 28.7664 29.1668 28.5544 29.1668 28.3334V16.6667C29.1668 16.4457 29.079 16.2337 28.9228 16.0775C28.7665 15.9212 28.5545 15.8334 28.3335 15.8334ZM12.5002 17.5H15.8335V27.5H12.5002V17.5ZM17.5002 16.6667V12.5H22.5002V27.5H20.8335V25.8334C20.8335 25.6124 20.7457 25.4004 20.5894 25.2441C20.4331 25.0878 20.2212 25 20.0002 25C19.7791 25 19.5672 25.0878 19.4109 25.2441C19.2546 25.4004 19.1668 25.6124 19.1668 25.8334V27.5H17.5002V16.6667ZM27.5002 27.5H24.1668V17.5H27.5002V27.5ZM20.8335 15.8334H19.1668V14.1667H20.8335V15.8334ZM20.8335 19.1667H19.1668V17.5H20.8335V19.1667ZM20.8335 22.5H19.1668V20.8334H20.8335V22.5ZM13.3335 18.3334H15.0002V20H13.3335V18.3334ZM13.3335 21.6667H15.0002V23.3334H13.3335V21.6667ZM13.3335 25H15.0002V26.6667H13.3335V25ZM26.6668 20H25.0002V18.3334H26.6668V20ZM26.6668 23.3334H25.0002V21.6667H26.6668V23.3334ZM26.6668 26.6667H25.0002V25H26.6668V26.6667Z" fill="white"></path></g><defs><clipPath id="clip0_82_223"><rect width="20" height="20" fill="white" transform="translate(10 10)"></rect></clipPath></defs></svg> 