<?xml version="1.0" encoding="UTF-8"?> <svg xmlns="http://www.w3.org/2000/svg" width="50" height="50" viewBox="0 0 50 50" fill="none"><rect width="50" height="50" rx="25" fill="#487498"></rect><path d="M18.7 33.988L18.712 31.756L26.236 25.012C26.844 24.476 27.256 23.964 27.472 23.476C27.696 22.988 27.808 22.5 27.808 22.012C27.808 21.396 27.672 20.844 27.4 20.356C27.128 19.86 26.752 19.468 26.272 19.18C25.792 18.892 25.24 18.748 24.616 18.748C23.976 18.748 23.404 18.9 22.9 19.204C22.404 19.5 22.016 19.896 21.736 20.392C21.456 20.888 21.32 21.424 21.328 22H18.76C18.76 20.88 19.012 19.9 19.516 19.06C20.028 18.212 20.728 17.552 21.616 17.08C22.504 16.6 23.52 16.36 24.664 16.36C25.752 16.36 26.728 16.608 27.592 17.104C28.456 17.592 29.136 18.264 29.632 19.12C30.136 19.976 30.388 20.952 30.388 22.048C30.388 22.84 30.284 23.512 30.076 24.064C29.868 24.616 29.556 25.128 29.14 25.6C28.724 26.072 28.204 26.584 27.58 27.136L21.772 32.32L21.496 31.6H30.388V33.988H18.7Z" fill="white"></path></svg> 