<?xml version="1.0" encoding="UTF-8"?> <svg xmlns="http://www.w3.org/2000/svg" width="216" height="30" viewBox="0 0 216 30" fill="none"><path d="M18.4512 9.38401L18.5261 9.77045L18.7841 9.67421L25.1465 7.32184L20.5922 14.2605L20.3972 14.5573L20.5922 14.8541L25.1465 21.7918L18.7841 19.4403L18.5261 19.3441L18.4512 19.7305L16.6467 29.0569L14.8424 19.7305L14.7675 19.3441L14.5095 19.4403L8.14648 21.7918L12.7014 14.8541L12.8963 14.5573L12.7014 14.2605L8.14648 7.32184L14.5095 9.67421L14.7675 9.77045L14.8424 9.38401L16.6467 0.0568848L18.4512 9.38401Z" fill="#BAE5FF" stroke="#404040" stroke-width="0.6"></path><path d="M21.9924 11.7019L21.8944 12.0875L22.2942 12.1934L32.3555 14.8493L22.3381 17.6374L21.9346 17.7494L22.04 18.1359L24.6489 27.7391L17.0952 20.8882L16.7951 20.6154L16.4967 20.893L9.04169 27.8464L11.5113 18.202L11.6102 17.8168L11.2092 17.7111L1.14648 15.0545L11.1658 12.2664L11.5692 12.1545L11.4639 11.7681L8.85499 2.16468L16.4083 9.01643L16.7095 9.28892L17.0072 9.011L24.4625 2.05688L21.9924 11.7019Z" fill="#81CFFF" stroke="#404040" stroke-width="0.6"></path><path d="M58.4131 18.6545C58.4131 18.1331 58.3721 17.7229 58.29 17.4241C58.208 17.1252 58.0234 16.9055 57.7363 16.7649C57.4492 16.6184 57.0039 16.5247 56.4004 16.4836C55.7969 16.4368 54.9707 16.4045 53.9219 16.387L49.0352 16.3167C47.8281 16.2991 46.8584 16.2258 46.126 16.0969C45.3936 15.968 44.8398 15.7659 44.4648 15.4905C44.0898 15.2092 43.8379 14.8342 43.709 14.3655C43.5859 13.8967 43.5244 13.3108 43.5244 12.6077C43.5244 11.8401 43.6094 11.2073 43.7793 10.7092C43.9551 10.2112 44.2686 9.82153 44.7197 9.54028C45.1768 9.25903 45.8213 9.06274 46.6533 8.95142C47.4854 8.83423 48.5605 8.77563 49.8789 8.77563H53.6406C54.8359 8.77563 55.832 8.81372 56.6289 8.88989C57.4258 8.96606 58.0586 9.14185 58.5273 9.41724C58.9961 9.69263 59.3301 10.1204 59.5293 10.7004C59.7344 11.2805 59.8369 12.0774 59.8369 13.0911H58.1494C58.1494 12.3059 58.0732 11.7141 57.9209 11.3157C57.7744 10.9114 57.5283 10.636 57.1826 10.4895C56.8428 10.343 56.3828 10.2639 55.8027 10.2522C55.2227 10.2405 54.502 10.2346 53.6406 10.2346H49.9668C48.918 10.2346 48.0771 10.2551 47.4443 10.2961C46.8174 10.3372 46.3428 10.4309 46.0205 10.5774C45.6982 10.7239 45.4814 10.9583 45.3701 11.2805C45.2646 11.6028 45.2119 12.0452 45.2119 12.6077C45.2119 13.0823 45.25 13.4631 45.3262 13.7502C45.4023 14.0374 45.5723 14.2571 45.8359 14.4094C46.1055 14.5559 46.5186 14.6584 47.0752 14.717C47.6318 14.7698 48.3906 14.802 49.3516 14.8137L54.5898 14.884C55.8203 14.9016 56.8018 14.9749 57.5342 15.1038C58.2725 15.2268 58.8232 15.429 59.1865 15.7102C59.5557 15.9915 59.7988 16.3723 59.916 16.8528C60.0391 17.3274 60.1006 17.928 60.1006 18.6545C60.1006 19.4456 60.0244 20.1106 59.8721 20.6497C59.7256 21.1829 59.4385 21.6106 59.0107 21.9329C58.583 22.2551 57.9648 22.4866 57.1562 22.6272C56.3477 22.7678 55.2842 22.8381 53.9658 22.8381H49.8525C48.6514 22.8381 47.6436 22.7854 46.8291 22.6799C46.0146 22.5745 45.3643 22.3635 44.8779 22.0471C44.3975 21.7249 44.0518 21.2473 43.8408 20.6145C43.6299 19.9817 43.5244 19.1379 43.5244 18.0833H45.2119C45.2119 18.9094 45.2793 19.5481 45.4141 19.9993C45.5488 20.4504 45.7832 20.7756 46.1172 20.9749C46.457 21.1682 46.9287 21.2854 47.5322 21.3264C48.1416 21.3616 48.915 21.3792 49.8525 21.3792H53.8779C54.9268 21.3792 55.7559 21.3469 56.3652 21.2825C56.9746 21.2122 57.4258 21.0833 57.7188 20.8958C58.0117 20.7024 58.1992 20.427 58.2812 20.0696C58.3691 19.7122 58.4131 19.2405 58.4131 18.6545ZM62.3418 22.5569V12.4319H64.0293V13.7766C64.2812 13.4368 64.5918 13.1526 64.9609 12.9241C65.3359 12.6956 65.834 12.5256 66.4551 12.4143C67.082 12.2971 67.9023 12.2385 68.916 12.2385C70.2402 12.2385 71.2832 12.3674 72.0449 12.6252C72.8125 12.8831 73.3574 13.343 73.6797 14.0051C74.002 14.6672 74.1631 15.6047 74.1631 16.8176V22.5569H72.4668V16.8176C72.4668 16.1262 72.4082 15.5696 72.291 15.1477C72.1738 14.7258 71.9717 14.4065 71.6846 14.1897C71.4033 13.9729 71.0137 13.8293 70.5156 13.759C70.0176 13.6829 69.3848 13.6448 68.6172 13.6448C67.4453 13.6448 66.5254 13.7415 65.8574 13.9348C65.1895 14.1282 64.7178 14.4329 64.4424 14.8489C64.167 15.259 64.0293 15.7952 64.0293 16.4573V22.5569H62.3418ZM82.3018 22.7502C81.1709 22.7502 80.21 22.6917 79.4189 22.5745C78.6279 22.4631 77.9893 22.2317 77.5029 21.8801C77.0166 21.5227 76.6621 20.9895 76.4395 20.2805C76.2168 19.5715 76.1055 18.6252 76.1055 17.4417C76.1055 16.2932 76.2168 15.3733 76.4395 14.6819C76.6621 13.9905 77.0166 13.469 77.5029 13.1174C77.9893 12.7659 78.6279 12.5315 79.4189 12.4143C80.21 12.2971 81.1709 12.2385 82.3018 12.2385C83.4385 12.2385 84.3994 12.2971 85.1846 12.4143C85.9756 12.5315 86.6143 12.7659 87.1006 13.1174C87.5869 13.469 87.9414 13.9905 88.1641 14.6819C88.3867 15.3733 88.498 16.2932 88.498 17.4417C88.498 18.6252 88.3867 19.5715 88.1641 20.2805C87.9414 20.9895 87.5869 21.5227 87.1006 21.8801C86.6143 22.2317 85.9756 22.4631 85.1846 22.5745C84.3994 22.6917 83.4385 22.7502 82.3018 22.7502ZM86.8105 17.4417C86.8105 16.6038 86.7666 15.9329 86.6787 15.429C86.5967 14.925 86.4121 14.5471 86.125 14.2952C85.8379 14.0374 85.3896 13.8645 84.7803 13.7766C84.1768 13.6887 83.3506 13.6448 82.3018 13.6448C81.2588 13.6448 80.4326 13.6887 79.8232 13.7766C79.2139 13.8645 78.7656 14.0374 78.4785 14.2952C78.1914 14.5471 78.0039 14.925 77.916 15.429C77.834 15.9329 77.793 16.6038 77.793 17.4417C77.793 18.3088 77.834 19.0032 77.916 19.5247C78.0039 20.0461 78.1914 20.4387 78.4785 20.7024C78.7656 20.9602 79.2139 21.1331 79.8232 21.2209C80.4326 21.303 81.2588 21.344 82.3018 21.344C83.3506 21.344 84.1768 21.303 84.7803 21.2209C85.3896 21.1331 85.8379 20.9602 86.125 20.7024C86.4121 20.4387 86.5967 20.0461 86.6787 19.5247C86.7666 19.0032 86.8105 18.3088 86.8105 17.4417ZM93.2793 22.5569L89.3945 12.4319H91.3105L94.3955 21.1946H94.4131L97.7793 12.4319H99.4668L102.798 21.1946H102.815L105.936 12.4319H107.852L103.967 22.5569H101.717L98.6318 14.3567H98.6143L95.5293 22.5569H93.2793ZM115.27 22.5569V9.05688H117.027L130.589 20.4739H130.606V9.05688H132.294V22.5569H130.536L116.975 11.0432H116.957V22.5569H115.27ZM141.03 22.7502C139.899 22.7502 138.938 22.6917 138.147 22.5745C137.356 22.4631 136.718 22.2317 136.231 21.8801C135.745 21.5227 135.391 20.9895 135.168 20.2805C134.945 19.5715 134.834 18.6252 134.834 17.4417C134.834 16.2932 134.945 15.3733 135.168 14.6819C135.391 13.9905 135.745 13.469 136.231 13.1174C136.718 12.7659 137.356 12.5315 138.147 12.4143C138.938 12.2971 139.899 12.2385 141.03 12.2385C142.167 12.2385 143.128 12.2971 143.913 12.4143C144.704 12.5315 145.343 12.7659 145.829 13.1174C146.315 13.469 146.67 13.9905 146.893 14.6819C147.115 15.3733 147.227 16.2932 147.227 17.4417C147.227 18.6252 147.115 19.5715 146.893 20.2805C146.67 20.9895 146.315 21.5227 145.829 21.8801C145.343 22.2317 144.704 22.4631 143.913 22.5745C143.128 22.6917 142.167 22.7502 141.03 22.7502ZM145.539 17.4417C145.539 16.6038 145.495 15.9329 145.407 15.429C145.325 14.925 145.141 14.5471 144.854 14.2952C144.566 14.0374 144.118 13.8645 143.509 13.7766C142.905 13.6887 142.079 13.6448 141.03 13.6448C139.987 13.6448 139.161 13.6887 138.552 13.7766C137.942 13.8645 137.494 14.0374 137.207 14.2952C136.92 14.5471 136.732 14.925 136.645 15.429C136.562 15.9329 136.521 16.6038 136.521 17.4417C136.521 18.3088 136.562 19.0032 136.645 19.5247C136.732 20.0461 136.92 20.4387 137.207 20.7024C137.494 20.9602 137.942 21.1331 138.552 21.2209C139.161 21.303 139.987 21.344 141.03 21.344C142.079 21.344 142.905 21.303 143.509 21.2209C144.118 21.1331 144.566 20.9602 144.854 20.7024C145.141 20.4387 145.325 20.0461 145.407 19.5247C145.495 19.0032 145.539 18.3088 145.539 17.4417ZM154.908 22.5569V9.05688H157.422L165.587 20.0696L173.629 9.05688H176.143V22.5569H174.455V10.5862L166.396 21.6692H164.866L156.596 10.5862V22.5569H154.908ZM184.905 22.7502C183.774 22.7502 182.813 22.6917 182.022 22.5745C181.231 22.4631 180.593 22.2317 180.106 21.8801C179.62 21.5227 179.266 20.9895 179.043 20.2805C178.82 19.5715 178.709 18.6252 178.709 17.4417C178.709 16.2932 178.82 15.3733 179.043 14.6819C179.266 13.9905 179.62 13.469 180.106 13.1174C180.593 12.7659 181.231 12.5315 182.022 12.4143C182.813 12.2971 183.774 12.2385 184.905 12.2385C186.042 12.2385 187.003 12.2971 187.788 12.4143C188.579 12.5315 189.218 12.7659 189.704 13.1174C190.19 13.469 190.545 13.9905 190.768 14.6819C190.99 15.3733 191.102 16.2932 191.102 17.4417C191.102 18.6252 190.99 19.5715 190.768 20.2805C190.545 20.9895 190.19 21.5227 189.704 21.8801C189.218 22.2317 188.579 22.4631 187.788 22.5745C187.003 22.6917 186.042 22.7502 184.905 22.7502ZM189.414 17.4417C189.414 16.6038 189.37 15.9329 189.282 15.429C189.2 14.925 189.016 14.5471 188.729 14.2952C188.441 14.0374 187.993 13.8645 187.384 13.7766C186.78 13.6887 185.954 13.6448 184.905 13.6448C183.862 13.6448 183.036 13.6887 182.427 13.7766C181.817 13.8645 181.369 14.0374 181.082 14.2952C180.795 14.5471 180.607 14.925 180.52 15.429C180.438 15.9329 180.396 16.6038 180.396 17.4417C180.396 18.3088 180.438 19.0032 180.52 19.5247C180.607 20.0461 180.795 20.4387 181.082 20.7024C181.369 20.9602 181.817 21.1331 182.427 21.2209C183.036 21.303 183.862 21.344 184.905 21.344C185.954 21.344 186.78 21.303 187.384 21.2209C187.993 21.1331 188.441 20.9602 188.729 20.7024C189.016 20.4387 189.2 20.0461 189.282 19.5247C189.37 19.0032 189.414 18.3088 189.414 17.4417ZM193.246 22.5569V12.4319H194.934V13.8293C195.121 13.5305 195.309 13.2815 195.496 13.0823C195.689 12.8831 195.938 12.7249 196.243 12.6077C196.554 12.4905 196.973 12.4084 197.5 12.3616C198.027 12.3088 198.722 12.2825 199.583 12.2825V13.6975C198.423 13.6975 197.523 13.7385 196.885 13.8206C196.252 13.9026 195.798 14.0432 195.522 14.2424C195.247 14.4358 195.08 14.7053 195.021 15.051C194.963 15.3967 194.934 15.8362 194.934 16.3694V22.5569H193.246ZM213.329 19.551C213.329 20.3069 213.215 20.9016 212.986 21.3352C212.764 21.7688 212.421 22.0852 211.958 22.2844C211.495 22.4836 210.903 22.6096 210.183 22.6624C209.468 22.7209 208.615 22.7502 207.625 22.7502C206.494 22.7502 205.533 22.6917 204.742 22.5745C203.957 22.4631 203.321 22.2317 202.835 21.8801C202.354 21.5227 202.003 20.9895 201.78 20.2805C201.563 19.5715 201.455 18.6252 201.455 17.4417C201.455 16.2932 201.561 15.3733 201.771 14.6819C201.988 13.9905 202.337 13.469 202.817 13.1174C203.298 12.7659 203.928 12.5315 204.707 12.4143C205.492 12.2971 206.45 12.2385 207.581 12.2385C208.876 12.2385 209.948 12.3293 210.798 12.511C211.647 12.6926 212.28 13.0383 212.696 13.5481C213.118 14.0579 213.329 14.8049 213.329 15.7893V17.9602H203.151C203.157 18.7102 203.21 19.3108 203.31 19.762C203.409 20.2131 203.608 20.553 203.907 20.7815C204.206 21.01 204.651 21.1624 205.243 21.2385C205.841 21.3088 206.635 21.344 207.625 21.344C208.516 21.344 209.233 21.3264 209.778 21.2913C210.329 21.2561 210.745 21.1799 211.026 21.0627C211.313 20.9397 211.507 20.7581 211.606 20.5178C211.706 20.2776 211.756 19.9553 211.756 19.551H213.329ZM207.581 13.6448C206.626 13.6448 205.855 13.6799 205.27 13.7502C204.689 13.8206 204.247 13.9583 203.942 14.1633C203.638 14.3625 203.43 14.6614 203.318 15.0598C203.213 15.4583 203.157 15.9827 203.151 16.6331H211.712V15.7893C211.712 15.3674 211.662 15.0188 211.562 14.7434C211.469 14.4622 211.281 14.2424 211 14.0842C210.719 13.9202 210.303 13.8059 209.752 13.7415C209.207 13.677 208.483 13.6448 207.581 13.6448Z" fill="#252525"></path></svg> 