<?xml version="1.0" encoding="UTF-8"?> <svg xmlns="http://www.w3.org/2000/svg" width="100" height="100" viewBox="0 0 100 100" fill="none"><rect width="100" height="100" rx="20" fill="#487498"></rect><path d="M50 31.7307C38.3077 31.7307 28.8077 41.2307 28.8077 52.9231V68.2692H39.0385V52.9231C39.0385 46.8576 43.9346 41.9615 50 41.9615H71.1924V31.7307H50Z" fill="white"></path><path d="M50.0001 31.7307H52.1924C40.5001 31.7307 31 41.2307 31 52.9231V68.2692H28.8077V52.9231C28.8077 41.2307 38.3078 31.7307 50.0001 31.7307Z" fill="#BABABA"></path><path d="M71.1924 41.9614H69.0001V31.7307H71.1924V41.9614Z" fill="#DFDFDF"></path><path d="M47.8077 41.9614H50C43.9346 41.9614 39.0385 46.8576 39.0385 52.923V68.2691H36.8461V52.923C36.8461 46.8576 41.7423 41.9614 47.8077 41.9614Z" fill="#DFDFDF"></path><path d="M33.9231 65.3461C34.3615 65.3461 34.6538 65.0538 34.6538 64.6153V63.1538C34.6538 62.7153 34.3615 62.423 33.9231 62.423C33.4846 62.423 33.1923 62.7153 33.1923 63.1538V64.6153C33.1922 65.0538 33.4846 65.3461 33.9231 65.3461Z" fill="white"></path><path d="M33.923 59.2077C34.3614 59.2077 34.6537 58.9154 34.6537 58.4769V55.3346C34.6537 54.8962 34.3614 54.6039 33.923 54.6039C33.4845 54.6039 33.1922 54.8962 33.1922 55.3346V58.4769C33.1921 58.8422 33.4845 59.2077 33.923 59.2077ZM34.0691 51.3884C34.4345 51.3884 34.7268 51.0961 34.7998 50.7307C34.946 49.7807 35.1652 48.7576 35.5305 47.8076C35.6767 47.4422 35.4575 47.0038 35.0921 46.8577C34.7267 46.7115 34.2882 46.9307 34.1421 47.2961C33.7767 48.3192 33.5575 49.4154 33.4114 50.4384C33.3383 50.8038 33.6306 51.2423 34.0691 51.2423C33.996 51.3884 34.0691 51.3884 34.0691 51.3884ZM36.9922 44.2269C37.2114 44.2269 37.4307 44.1539 37.5768 43.9346C38.1615 43.1307 38.8192 42.4 39.5499 41.6693C39.8422 41.377 39.8422 40.9385 39.5499 40.6462C39.2576 40.3539 38.8192 40.3539 38.5268 40.6462C37.7229 41.3769 36.9922 42.1808 36.3345 43.0577C36.1153 43.35 36.1883 43.8616 36.4807 44.0808C36.6998 44.1538 36.846 44.2269 36.9922 44.2269ZM42.9114 39.2576C42.9845 39.2576 43.1307 39.2576 43.2037 39.1846C44.0806 38.7461 45.0306 38.3807 45.9807 38.1615C46.3461 38.0153 46.6384 37.5768 46.4922 37.2115C46.4191 36.8461 45.9807 36.5538 45.6152 36.7C44.5921 36.9923 43.5691 37.3577 42.546 37.8692C42.1806 38.0154 42.0345 38.4538 42.1806 38.8192C42.3268 39.1115 42.6191 39.2576 42.9114 39.2576ZM50.4383 37.5768H53.5806C54.0191 37.5768 54.3113 37.2846 54.3113 36.8461C54.3113 36.4076 54.0191 36.1154 53.5806 36.1154H50.4383C49.9999 36.1154 49.7076 36.4076 49.7076 36.8461C49.7076 37.2846 49.9999 37.5768 50.4383 37.5768ZM58.2576 37.5768H61.3999C61.8383 37.5768 62.1306 37.2846 62.1306 36.8461C62.1306 36.4076 61.8383 36.1154 61.3999 36.1154H58.2576C57.8191 36.1154 57.5269 36.4076 57.5269 36.8461C57.5269 37.2846 57.8191 37.5768 58.2576 37.5768Z" fill="#B3B3B3"></path><path d="M66.077 37.5768H67.5385C67.977 37.5768 68.2693 37.2846 68.2693 36.8461C68.2693 36.4076 67.977 36.1154 67.5385 36.1154H66.077C65.6385 36.1154 65.3462 36.4076 65.3462 36.8461C65.3462 37.2846 65.6385 37.5768 66.077 37.5768Z" fill="white"></path><path d="M28.8077 69H39.0385C39.4769 69 39.7692 68.7077 39.7692 68.2693V52.9231C39.7692 47.2961 44.373 42.6923 50 42.6923H71.1924C71.6308 42.6923 71.9231 42.4 71.9231 41.9615V31.7307C71.9231 31.2923 71.6308 31 71.1924 31H50C37.9423 31 28.0769 40.8654 28.0769 52.9231V68.2693C28.0769 68.7076 28.3692 69 28.8077 69ZM38.3077 67.5384H29.5385V52.923C29.5385 41.6692 38.7462 32.4615 50 32.4615H70.4615V41.2307H50C43.5693 41.2307 38.3077 46.4923 38.3077 52.923V67.5384Z" fill="white"></path></svg> 