<?xml version="1.0" encoding="UTF-8"?> <svg xmlns="http://www.w3.org/2000/svg" width="70" height="70" viewBox="0 0 70 70" fill="none"><rect width="70" height="70" rx="20" fill="#D6E2E9"></rect><path d="M44.5469 37.2994L44.338 39.1748C44.2602 39.1304 44.1817 39.0904 44.0987 39.0511L43.2018 35.1374C42.8722 33.2709 41.4657 31.9007 39.4132 31.971H30.8355C28.9801 31.971 27.3633 32.6754 27.0492 35.1374L26.1523 39.0511C26.0686 39.0904 25.9908 39.1304 25.9123 39.1748L25.7027 37.2994C25.7027 37.2994 22.7118 35.9818 22.0015 37.2994C21.2897 38.6178 22.0015 39.0926 22.0015 39.0926L25.7227 39.2933C25.0264 39.757 24.5806 40.4621 24.5806 41.2546V44.8432C24.5806 45.7349 25.1457 46.5178 25.9952 46.9689V49.3805C25.9952 50.1975 27.0018 50.8559 28.2454 50.8559C29.489 50.8559 30.4956 50.1953 30.4956 49.3805V47.3748H39.3681V49.3798C39.3681 50.1967 40.3754 50.8552 41.6182 50.8552C42.8626 50.8552 43.8684 50.1945 43.8684 49.3798V47.1422C44.9313 46.743 45.669 45.8623 45.669 44.8432V41.2539C45.669 40.4613 45.2223 39.7562 44.5283 39.2926L48.2495 39.0918C48.2495 39.0918 48.3998 38.6171 48.2495 37.2987C48.0999 35.9803 44.5469 37.2994 44.5469 37.2994ZM30.8844 44.1447H26.8233V42.216H30.8844V44.1447ZM38.8281 44.2091H31.871V43.3648H38.8281V44.2091ZM38.8977 43.1189H31.9421V42.276H38.8977V43.1189ZM27.104 38.5075C27.0425 38.5075 26.9811 38.5141 26.9211 38.5163L27.8869 34.65C28.0662 33.5538 29.2831 32.6065 30.48 32.6065H39.771C40.9664 32.6065 42.0626 33.3761 42.3633 34.65L43.3284 38.5163C43.2685 38.5141 43.2062 38.5075 43.1462 38.5075H27.104ZM43.9876 44.1447H39.9251V42.216H43.9876V44.1447Z" fill="#4A4A4A"></path><path d="M35.1441 18.153L15 26.7182V51.8477H19.3003V29.5764H50.6997V51.8477H55V26.7182L35.1441 18.153Z" fill="#4A4A4A"></path></svg> 