<?xml version="1.0" encoding="UTF-8"?> <svg xmlns="http://www.w3.org/2000/svg" width="100" height="100" viewBox="0 0 100 100" fill="none"><rect width="100" height="100" rx="20" fill="#487498"></rect><path d="M55.2093 27.6484L44.584 30.4484V39.0457L37.042 40.8556V49.4537L29.5 51.2637V61.5114L44.7907 72.3517L45.3485 72.2179L70.5 65.932V38.4895L55.2093 27.6484ZM44.1053 68.7669L32.0287 60.2052V54.2528L44.1053 62.879V68.7669ZM45.2526 61.3677L33.4276 52.9216L38.5275 51.6975L50.3526 60.1445L45.2526 61.3677ZM51.6473 58.738L39.5707 50.1117V43.8447L51.6473 52.471V58.738ZM52.7946 50.9598L40.9695 42.5127L46.0687 41.2895L57.8946 49.7372L52.7946 50.9598ZM59.1893 48.3307L47.1127 39.7044V33.4368L59.1893 42.0638V48.3307ZM60.3365 40.5532L48.5107 32.1062L54.6835 30.3746L66.5747 38.8064L60.3365 40.5532Z" fill="white"></path></svg> 