<?xml version="1.0" encoding="UTF-8"?> <svg xmlns="http://www.w3.org/2000/svg" width="71" height="71" viewBox="0 0 71 71" fill="none"><rect width="71" height="71" rx="20" fill="#D6E2E9"></rect><path d="M35.5001 20.5961C25.9616 20.5961 18.2116 28.3461 18.2116 37.8846V50.4039H26.5578V37.8846C26.5578 32.9365 30.552 28.9423 35.5001 28.9423H52.7886V20.5961H35.5001Z" fill="#4A4A4A"></path><path d="M35.5001 20.5961H37.2886C27.7501 20.5961 20.0001 28.3461 20.0001 37.8846V50.4039H18.2116V37.8846C18.2116 28.3461 25.9617 20.5961 35.5001 20.5961Z" fill="#434343"></path><path d="M52.7886 28.9423H51.0001V20.5961H52.7886V28.9423Z" fill="#6D6D6D"></path><path d="M33.7115 28.9422H35.5C30.5519 28.9422 26.5577 32.9365 26.5577 37.8846V50.4038H24.7692V37.8846C24.7692 32.9365 28.7634 28.9422 33.7115 28.9422Z" fill="#6D6D6D"></path><path d="M22.3846 48.0192C22.7423 48.0192 22.9807 47.7808 22.9807 47.4231V46.2307C22.9807 45.873 22.7423 45.6346 22.3846 45.6346C22.0269 45.6346 21.7885 45.873 21.7885 46.2307V47.4231C21.7884 47.7808 22.0269 48.0192 22.3846 48.0192Z" fill="white"></path><path d="M22.3845 43.0115C22.7422 43.0115 22.9806 42.7731 22.9806 42.4154V39.8519C22.9806 39.4942 22.7422 39.2558 22.3845 39.2558C22.0268 39.2558 21.7884 39.4942 21.7884 39.8519V42.4154C21.7883 42.7134 22.0268 43.0115 22.3845 43.0115ZM22.5037 36.6326C22.8018 36.6326 23.0402 36.3942 23.0998 36.0961C23.2191 35.3211 23.3979 34.4865 23.6959 33.7115C23.8152 33.4134 23.6363 33.0557 23.3382 32.9365C23.0401 32.8173 22.6824 32.9961 22.5633 33.2942C22.2652 34.1288 22.0863 35.0231 21.9671 35.8576C21.9075 36.1557 22.146 36.5134 22.5037 36.5134C22.4441 36.6326 22.5037 36.6326 22.5037 36.6326ZM24.8883 30.7903C25.0672 30.7903 25.246 30.7308 25.3653 30.5519C25.8422 29.8961 26.3788 29.3 26.9749 28.7039C27.2133 28.4654 27.2133 28.1077 26.9749 27.8692C26.7365 27.6308 26.3788 27.6308 26.1403 27.8692C25.4845 28.4653 24.8883 29.1211 24.3518 29.8365C24.1729 30.075 24.2325 30.4923 24.4711 30.6712C24.6498 30.7307 24.7691 30.7903 24.8883 30.7903ZM29.7172 26.7365C29.7768 26.7365 29.896 26.7365 29.9556 26.6769C30.671 26.3192 31.446 26.0211 32.221 25.8422C32.5191 25.723 32.7576 25.3653 32.6383 25.0673C32.5787 24.7692 32.221 24.5307 31.9229 24.65C31.0883 24.8884 30.2537 25.1865 29.4191 25.6038C29.121 25.7231 29.0018 26.0808 29.121 26.3788C29.2402 26.6172 29.4787 26.7365 29.7172 26.7365ZM35.8576 25.3653H38.421C38.7787 25.3653 39.0171 25.1269 39.0171 24.7692C39.0171 24.4115 38.7787 24.173 38.421 24.173H35.8576C35.4999 24.173 35.2614 24.4115 35.2614 24.7692C35.2614 25.1269 35.4999 25.3653 35.8576 25.3653ZM42.2364 25.3653H44.7999C45.1576 25.3653 45.396 25.1269 45.396 24.7692C45.396 24.4115 45.1576 24.173 44.7999 24.173H42.2364C41.8787 24.173 41.6403 24.4115 41.6403 24.7692C41.6403 25.1269 41.8787 25.3653 42.2364 25.3653Z" fill="#B3B3B3"></path><path d="M48.6153 25.3653H49.8077C50.1654 25.3653 50.4038 25.1269 50.4038 24.7692C50.4038 24.4115 50.1654 24.173 49.8077 24.173H48.6153C48.2577 24.173 48.0192 24.4115 48.0192 24.7692C48.0192 25.1269 48.2577 25.3653 48.6153 25.3653Z" fill="white"></path><path d="M18.2115 51H26.5577C26.9154 51 27.1538 50.7616 27.1538 50.4039V37.8846C27.1538 33.2942 30.9096 29.5384 35.5 29.5384H52.7885C53.1462 29.5384 53.3846 29.3 53.3846 28.9423V20.5961C53.3846 20.2384 53.1462 20 52.7885 20H35.5C25.6635 20 17.6154 28.0481 17.6154 37.8846V50.4039C17.6154 50.7615 17.8538 51 18.2115 51ZM25.9616 49.8077H18.8077V37.8846C18.8077 28.7038 26.3193 21.1923 35.5 21.1923H52.1923V28.3461H35.5C30.2539 28.3461 25.9616 32.6384 25.9616 37.8846V49.8077Z" fill="#505050"></path></svg> 