<?xml version="1.0" encoding="UTF-8"?> <svg xmlns="http://www.w3.org/2000/svg" width="120" height="40" viewBox="0 0 120 40" fill="none"><g clip-path="url(#clip0_75_754)"><path d="M24.7974 13.7518L24.9341 14.2185L25.405 14.1024L37.0172 11.261L28.7051 19.642L28.3492 20.0004L28.7051 20.3589L37.0172 28.7389L25.405 25.8985L24.9341 25.7823L24.7974 26.2491L21.5042 37.514L18.2111 26.2491L18.0742 25.7823L17.6034 25.8985L5.99023 28.7389L14.3034 20.3589L14.6592 20.0004L14.3034 19.642L5.99023 11.261L17.6034 14.1024L18.0742 14.2185L18.2111 13.7518L21.5042 2.48584L24.7974 13.7518Z" fill="#81CFFF" stroke="#404040"></path><path d="M26.9349 15.9903L26.8189 16.466L27.2915 16.5968L39.1839 19.8739L27.3434 23.3141L26.8665 23.4521L26.991 23.929L30.0746 35.7785L21.1462 27.325L20.7916 26.9885L20.4389 27.3309L11.6271 35.9108L14.5461 24.0108L14.663 23.5354L14.1891 23.405L2.29492 20.127L14.1377 16.6869L14.6146 16.5488L14.49 16.0719L11.4064 4.22237L20.3344 12.6766L20.6904 13.0129L21.0422 12.67L29.8545 4.08936L26.9349 15.9903Z" fill="#81CFFF" stroke="#404040"></path><path d="M48.9185 12.7794V15.1361C48.9185 15.2235 48.9612 15.2671 49.0466 15.2671H49.7897C49.8751 15.2671 49.9178 15.2235 49.9178 15.1361L49.9435 11.6533L47.0478 10.3701C46.3988 10.0733 45.9632 9.76781 45.7411 9.45356C45.5361 9.13931 45.4336 8.65919 45.4336 8.01326V3.74476C45.4336 2.40049 45.7155 1.44029 46.2792 0.864176C46.8428 0.288059 47.7568 0 49.021 0H50.0972C51.293 0.0523743 52.1471 0.375353 52.6596 0.968925C53.1721 1.54504 53.4283 2.47033 53.4283 3.74476V7.01816L49.9435 6.62535V3.61383C49.9435 3.52654 49.9007 3.48289 49.8153 3.48289H49.0466C48.9612 3.48289 48.9185 3.52654 48.9185 3.61383V7.46334L51.814 8.74651C52.4631 9.02581 52.8902 9.33139 53.0952 9.66306C53.3173 9.9773 53.4283 10.4574 53.4283 11.1033V15.0052C53.4283 16.2796 53.1721 17.2138 52.6596 17.8073C52.1471 18.3834 51.293 18.6976 50.0972 18.75H49.0722C47.774 18.75 46.8428 18.462 46.2792 17.8859C45.7155 17.2922 45.4336 16.332 45.4336 15.0052V12.7794H48.9185ZM56.088 18.5405V3.69239H55.6011L55.9598 0.209497H59.5728L62.4941 10.1606V0.209497H65.979V18.5405H62.4941L59.5728 8.58939V18.5405H56.088ZM76.8003 14.9005C76.8003 16.2272 76.51 17.1875 75.9291 17.7811C75.3653 18.3573 74.4258 18.6452 73.1105 18.6452H71.983C70.6677 18.6452 69.7196 18.3573 69.1387 17.7811C68.575 17.1875 68.2931 16.2272 68.2931 14.9005V3.84951C68.2931 2.50524 68.575 1.54504 69.1387 0.968925C69.7196 0.392807 70.6677 0.104749 71.983 0.104749H73.1105C74.4258 0.104749 75.3653 0.392807 75.9291 0.968925C76.51 1.54504 76.8003 2.50524 76.8003 3.84951V14.9005ZM71.9061 3.58764C71.8207 3.58764 71.778 3.63129 71.778 3.71857V15.0314C71.778 15.1187 71.8207 15.1624 71.9061 15.1624H73.1873C73.2727 15.1624 73.3155 15.1187 73.3155 15.0314V3.71857C73.3155 3.63129 73.2727 3.58764 73.1873 3.58764H71.9061ZM79.4867 18.5405V0.209497H82.9713V11.6271L84.4063 2.82821H86.8406L88.1987 11.1557V0.209497H91.6836V18.5405H86.8662L85.6106 8.66795L84.3807 18.5405H79.4867Z" fill="#404040"></path><path d="M45.9198 39.8941V24.8781H45.4336L45.792 21.3559H49.401L52.3191 31.4195V21.3559H55.8002V39.8941H52.3191L49.401 29.8305V39.8941H45.9198ZM66.6098 36.2129C66.6098 37.5548 66.3198 38.5258 65.7396 39.126C65.1765 39.7086 64.238 40 62.924 40H61.7977C60.4838 40 59.5367 39.7086 58.9566 39.126C58.3935 38.5258 58.1118 37.5548 58.1118 36.2129V25.0371C58.1118 23.6776 58.3935 22.7066 58.9566 22.124C59.5367 21.5414 60.4838 21.25 61.7977 21.25H62.924C64.238 21.25 65.1765 21.5414 65.7396 22.124C66.3198 22.7066 66.6098 23.6776 66.6098 25.0371V36.2129ZM61.721 24.7723C61.6357 24.7723 61.593 24.8164 61.593 24.9046V36.3454C61.593 36.4336 61.6357 36.4777 61.721 36.4777H63.0008C63.0861 36.4777 63.1287 36.4336 63.1287 36.3454V24.9046C63.1287 24.8164 63.0861 24.7723 63.0008 24.7723H61.721ZM75.281 39.8941V24.8781H74.7946L75.153 21.3559H77.5591L80.0931 21.3295L81.3215 31.34L82.5757 21.3559H87.3878V39.8941H83.9067V28.8241L82.5501 37.2458H80.1187L78.7621 28.8241V39.8941H75.281ZM98.4456 36.2129C98.4456 37.5548 98.1552 38.5258 97.5753 39.126C97.0122 39.7086 96.0738 40 94.7597 40H93.6335C92.3192 40 91.3721 39.7086 90.7922 39.126C90.2291 38.5258 89.9476 37.5548 89.9476 36.2129V25.0371C89.9476 23.6776 90.2291 22.7066 90.7922 22.124C91.3721 21.5414 92.3192 21.25 93.6335 21.25H94.7597C96.0738 21.25 97.0122 21.5414 97.5753 22.124C98.1552 22.7066 98.4456 23.6776 98.4456 25.0371V36.2129ZM93.5566 24.7723C93.4711 24.7723 93.4287 24.8164 93.4287 24.9046V36.3454C93.4287 36.4336 93.4711 36.4777 93.5566 36.4777H94.8365C94.9221 36.4777 94.9645 36.4336 94.9645 36.3454V24.9046C94.9645 24.8164 94.9221 24.7723 94.8365 24.7723H93.5566ZM101.109 39.8941V24.8781H100.623L100.981 21.3559H105.665C106.98 21.3559 107.918 21.6561 108.481 22.2564C109.062 22.839 109.351 23.8013 109.351 25.143V31.1811C109.351 32.5406 109.07 33.5116 108.507 34.0943L110.094 39.8941H106.612L105.281 34.9682H104.59V39.8941H101.109ZM105.742 24.8781H104.59V31.446H105.742C105.828 31.446 105.87 31.4019 105.87 31.3135V25.0106C105.87 24.9222 105.828 24.8781 105.742 24.8781ZM111.991 39.8941V24.8781H111.505L111.863 21.3559H119.184L118.979 24.8781H115.472V28.8506H118.62L118.416 32.3729H115.472V36.3719H119.184L118.979 39.8941H111.991Z" fill="#404040"></path></g><defs><clipPath id="clip0_75_754"><rect width="120" height="40" fill="white"></rect></clipPath></defs></svg> 