<?xml version="1.0" encoding="UTF-8"?> <svg xmlns="http://www.w3.org/2000/svg" width="100" height="100" viewBox="0 0 100 100" fill="none"><rect width="100" height="100" rx="50" fill="#487498"></rect><path d="M42.873 63.693V42.2817C42.873 41.4387 43.096 40.6168 43.5047 39.9214L48.5768 31.3652C49.3757 29.9954 51.3636 29.026 53.0543 29.7425C54.875 30.438 56.0827 32.7561 55.6925 34.8214L54.7264 41.7127C54.6521 42.3449 54.8007 42.9139 55.1166 43.3565C55.4324 43.7569 55.8969 44.0098 56.3985 44.0098H64.0345C65.5022 44.0098 66.7656 44.6841 67.5088 45.8643C68.2148 47.0023 68.3448 48.4775 67.8803 49.9737L63.3099 65.7583C62.734 68.3715 60.2258 70.5 57.7362 70.5H50.4904C49.2456 70.5 47.4992 70.0153 46.7003 69.1091L44.3222 67.0228C43.4118 66.243 42.873 64.9996 42.873 63.693Z" fill="white"></path><path d="M36.9639 38.1684H35.0502C32.1705 38.1684 31 39.4328 31 42.5518V63.7524C31 66.8714 32.1705 68.1358 35.0502 68.1358H36.9639C39.8436 68.1358 41.0141 66.8714 41.0141 63.7524V42.5518C41.0141 39.4328 39.8436 38.1684 36.9639 38.1684Z" fill="white"></path></svg> 