<?xml version="1.0" encoding="UTF-8"?> <svg xmlns="http://www.w3.org/2000/svg" width="40" height="40" viewBox="0 0 40 40" fill="none"><rect width="40" height="40" rx="20" fill="#81CFFF"></rect><path d="M16.9168 12.3428L17.6604 13.6751C18.3313 14.8774 18.062 16.4546 17.0052 17.5114C17.0052 17.5114 15.7234 18.7934 18.0475 21.1175C20.3708 23.4409 21.6536 22.1598 21.6536 22.1598C22.7104 21.103 24.2876 20.8337 25.4899 21.5046L26.8222 22.2482C28.6378 23.2614 28.8521 25.8074 27.2564 27.4033C26.2975 28.3621 25.1227 29.1083 23.8242 29.1574C21.6382 29.2404 17.9258 28.6872 14.2018 24.9632C10.4779 21.2392 9.92463 17.5268 10.0075 15.3408C10.0567 14.0423 10.8029 12.8676 11.7618 11.9087C13.3576 10.3129 15.9036 10.5273 16.9168 12.3428Z" fill="white"></path></svg> 