<?xml version="1.0" encoding="UTF-8"?> <svg xmlns="http://www.w3.org/2000/svg" width="70" height="70" viewBox="0 0 70 70" fill="none"><rect width="70" height="70" rx="20" fill="#D6E2E9"></rect><path d="M39.447 17.5L30.3765 19.6922V26.4234L23.9383 27.8404V34.5723L17.5 35.9894V44.0127L30.553 52.5L31.0292 52.3953L52.5 47.4737V25.9879L39.447 17.5ZM29.968 49.6933L19.6587 42.99V38.3296L29.968 45.0835V49.6933ZM30.9473 43.9002L20.8528 37.2874L25.2064 36.329L35.301 42.9425L30.9473 43.9002ZM36.4063 41.8413L26.097 35.0874V30.1807L36.4063 36.9346V41.8413ZM37.3856 35.7514L27.2911 29.1379L31.644 28.1802L41.7393 34.7942L37.3856 35.7514ZM42.8445 33.693L32.5352 26.9391V22.032L42.8445 28.7864V33.693ZM43.8239 27.6037L33.7286 20.9902L38.9981 19.6345L49.1491 26.2361L43.8239 27.6037Z" fill="#4A4A4A"></path></svg> 