<?xml version="1.0" encoding="UTF-8"?> <svg xmlns="http://www.w3.org/2000/svg" width="100" height="100" viewBox="0 0 100 100" fill="none"><circle cx="50" cy="50" r="50" fill="#487498"></circle><path d="M75.2699 44.7962C74.8897 44.0403 74.0848 43.5807 73.2531 43.6531L70.7249 43.8378C67.9825 33.9257 58.9049 26.6152 48.1308 26.6152C35.1925 26.6151 24.6665 37.1419 24.6665 50.0792C24.6665 63.0175 35.1925 73.5434 48.1307 73.5434C55.6198 73.5434 62.7225 69.9201 67.1302 63.8526C67.8066 62.9192 67.5986 61.6163 66.667 60.938C65.7336 60.2607 64.4297 60.4712 63.7532 61.4002C60.1273 66.3915 54.2874 69.3721 48.1297 69.3721C37.4912 69.3721 28.8374 60.7175 28.8374 50.0799C28.8374 39.4423 37.4914 30.788 48.1298 30.788C56.6978 30.788 63.9711 36.4066 66.4796 44.1492L65.1632 44.2455C64.3225 44.3063 63.6006 44.8702 63.3356 45.6699C63.0696 46.4712 63.3141 47.353 63.9514 47.9044L67.7387 51.1751C68.1072 51.7685 68.7588 52.1656 69.5066 52.1656C69.5458 52.1656 69.5824 52.1567 69.6208 52.1549C69.6333 52.1549 69.6431 52.1603 69.6548 52.1603C69.7048 52.1603 69.7557 52.1595 69.8074 52.1549C70.3588 52.1139 70.8711 51.856 71.2335 51.4374L74.9825 47.0967C75.5359 46.4587 75.6483 45.5493 75.2699 44.7962Z" fill="white"></path><path d="M37.0986 57.3489V55.323L38.9459 53.6534C42.0685 50.8602 43.5856 49.2538 43.6293 47.5832C43.6293 46.4167 42.9261 45.494 41.2752 45.494C40.0446 45.494 38.9665 46.108 38.2186 46.6817L37.2727 44.283C38.3507 43.4718 40.0213 42.8105 41.957 42.8105C45.1903 42.8105 46.9715 44.7015 46.9715 47.2967C46.9715 49.6936 45.2349 51.6079 43.1671 53.4544L41.8473 54.5539V54.5967H47.2357V57.3471H37.0986V57.3489Z" fill="white"></path><path d="M55.227 57.3489V53.9389H48.8936V51.7633L54.3034 43.0524H58.3943V51.4322H60.1095V53.9389H58.3943V57.3489H55.227ZM55.227 51.4322V48.2659C55.227 47.4074 55.2708 46.5293 55.3368 45.6047H55.2493C54.7861 46.5293 54.4122 47.3646 53.9295 48.2659L52.0162 51.3884V51.4322H55.227Z" fill="white"></path></svg> 