<?xml version="1.0" encoding="UTF-8"?> <svg xmlns="http://www.w3.org/2000/svg" width="100" height="100" viewBox="0 0 100 100" fill="none"><circle cx="50" cy="50" r="50" fill="#487498"></circle><path d="M74.3685 32.523C73.9707 32.2153 73.4479 32.0998 72.9513 32.2087C72.9366 32.2119 71.4571 32.5303 69.1392 32.5303C64.4538 32.5303 57.5298 31.3011 51.1524 25.4449C50.5063 24.8517 49.4937 24.8517 48.8477 25.4449C48.8282 25.4629 48.8085 25.4803 48.7888 25.4983C48.785 25.5017 48.7809 25.5047 48.7771 25.5082C42.416 31.3117 35.5219 32.53 30.8587 32.5301C28.8997 32.5301 27.5409 32.3029 27.1611 32.2313C26.6904 32.1424 26.251 32.1204 25.7548 32.4366C25.2618 32.7508 25 33.2662 25 33.7898C25 44.3732 27.1999 55.5693 33.3467 64.2617C33.3693 64.2936 33.3918 64.3257 33.4145 64.3573C37.1067 69.5414 43.4415 75 50.0001 75C55.3607 75 61.56 71.1364 66.179 64.9167C70.2032 59.4981 75 49.6993 75 33.7897C75 33.2968 74.7662 32.831 74.3685 32.523ZM48.2508 71.5622C45.0057 70.8901 40.5089 68.3901 36.5002 62.9686C32.9392 58.1523 28.7232 49.5621 28.373 35.6633C29.061 35.7261 29.9 35.7738 30.8588 35.7738C37.0443 35.7735 43.1039 33.8702 48.2508 30.1637V71.5622ZM63.4597 63.0228C59.3948 68.4962 54.8492 70.9702 51.6002 71.5925V66.844C57.8422 65.519 66.9842 56.7041 66.9842 38.1964C66.9842 38.1964 65.8087 38.4604 63.9361 38.4604C60.9517 38.4604 56.1959 37.7879 51.6002 34.3109V30.0553C56.8767 33.9037 63.0104 35.7741 69.1391 35.7741C70.0988 35.7741 70.9384 35.7263 71.627 35.6634C71.2761 49.6017 67.0388 58.2035 63.4597 63.0228ZM51.6003 63.4781V38.2623C56.2061 41.0436 60.7293 41.6472 63.5148 41.7C62.7003 53.3012 57.8219 59.9912 53.4765 62.5966C52.8405 62.9779 52.201 63.2763 51.6003 63.4781Z" fill="white"></path></svg> 