<?xml version="1.0" encoding="UTF-8"?> <svg xmlns="http://www.w3.org/2000/svg" width="100" height="100" viewBox="0 0 100 100" fill="none"><circle cx="50" cy="50" r="50" fill="#487498"></circle><path d="M35.667 30.3333L32.8857 31.0833L31.292 35.5833L24.667 37.5833V49.0833L25.8857 49.3646L35.7607 51.3333H36.667V38.5833C36.667 35.6849 39.0186 33.3333 41.917 33.3333H56.9482C58.3467 33.3333 59.6279 33.8216 60.667 34.6146V30.3333H35.667ZM41.917 35.3333C40.1318 35.3333 38.667 36.7982 38.667 38.5833V57.3333C38.667 57.3646 38.667 57.3958 38.667 57.4271C38.6748 57.4505 38.6943 57.4662 38.6982 57.4896C38.6943 57.5326 38.6943 57.5716 38.6982 57.6146C38.6826 57.8451 38.667 58.0912 38.667 58.3333C38.667 61.7552 40.1709 64.3333 42.167 64.3333H44.3232C44.8975 62.6849 45.667 60.1732 45.667 58.3958C45.667 55.9349 44.8936 54.2865 44.8857 54.2708C44.5615 53.6615 44.5889 52.8997 44.9482 52.3021C45.3076 51.7005 45.9678 51.3333 46.667 51.3333H46.7295C46.9756 49.6419 48.4092 48.3333 50.167 48.3333C51.9248 48.3333 53.3584 49.6419 53.6045 51.3333H55.667V48.3333H61.667V51.3333H63.7295C63.9521 49.806 65.1396 48.6185 66.667 48.3958V47.5833C66.6709 47.5326 66.6709 47.4779 66.667 47.4271C66.667 46.7943 66.5303 46.1927 66.2607 45.6458C66.1787 45.474 66.085 45.3021 65.9795 45.1458C65.9756 45.138 65.9834 45.1224 65.9795 45.1146C65.8701 44.9505 65.7373 44.8255 65.6045 44.6771C65.4678 44.5287 65.3232 44.3958 65.167 44.2708C64.8506 44.013 64.499 43.806 64.1045 43.6458L63.3545 43.3333L61.6045 42.6146L61.1045 38.8958C61.1045 38.8841 61.1045 38.8763 61.1045 38.8646C61.0186 38.3568 60.8506 37.8841 60.6045 37.4583C60.4912 37.2591 60.3428 37.0404 60.1982 36.8646C60.1904 36.8529 60.1748 36.8451 60.167 36.8333C59.5459 36.0872 58.6865 35.5755 57.6982 35.3958C57.4521 35.349 57.2061 35.3333 56.9482 35.3333H41.917ZM44.0732 37.3333H56.9482C57.2178 37.3333 57.4873 37.3724 57.7295 37.4583C58.0928 37.5912 58.3896 37.8255 58.6357 38.1146C58.7178 38.2122 58.7881 38.3177 58.8545 38.4271C58.9834 38.6458 59.0928 38.888 59.1357 39.1458V39.1771L59.667 43.3333H46.0107L45.0107 39.1146C44.8857 38.4154 44.542 37.806 44.0732 37.3333ZM50.167 50.3333C49.3389 50.3333 48.667 51.0052 48.667 51.8333C48.667 52.6615 49.3389 53.3333 50.167 53.3333C50.9951 53.3333 51.667 52.6615 51.667 51.8333C51.667 51.0052 50.9951 50.3333 50.167 50.3333ZM50.167 53.3333H48.0732C47.7217 53.3333 47.4092 53.5326 47.2295 53.8333C47.0498 54.1341 47.0342 54.4935 47.1982 54.8021C47.2061 54.8177 47.667 56.1263 47.667 58.3333C47.667 61.2865 45.7061 66.0951 45.6982 66.1458C45.6436 66.4193 45.6904 66.7005 45.8545 66.9271C46.0186 67.1537 46.2646 67.3021 46.542 67.3333L71.542 70.3333C71.5811 70.3372 71.6279 70.3333 71.667 70.3333C72.0889 70.3333 72.4639 70.0521 72.6045 69.6458C72.6904 69.3997 74.667 63.6263 74.667 59.1458C74.667 55.0365 73.2256 53.6966 72.9795 53.5208C72.8076 53.3997 72.6279 53.3333 72.417 53.3333H50.167ZM67.167 53.3333C67.9951 53.3333 68.667 52.6615 68.667 51.8333C68.667 51.0052 67.9951 50.3333 67.167 50.3333C66.3389 50.3333 65.667 51.0052 65.667 51.8333C65.667 52.6615 66.3389 53.3333 67.167 53.3333ZM26.667 51.5521C26.0459 52.4544 25.667 53.7826 25.667 55.3333C25.667 58.1849 26.9561 60.3333 28.667 60.3333H31.667C31.8701 60.3333 32.0693 60.2982 32.2607 60.2396C32.3584 60.2083 32.4482 60.1615 32.542 60.1146C32.6279 60.0716 32.71 60.0443 32.792 59.9896C32.9131 59.9115 33.0225 59.8099 33.1357 59.7083C33.1787 59.6693 33.249 59.6302 33.292 59.5833C33.4131 59.4583 33.5264 59.2982 33.6357 59.1458C33.6514 59.1263 33.6514 59.1029 33.667 59.0833C34.0107 58.5755 34.2803 57.9427 34.4482 57.2083L36.6982 57.7083C36.6982 57.6888 36.6982 57.6654 36.6982 57.6458C36.6865 57.556 36.667 57.4466 36.667 57.3333V53.3333L35.4795 53.3021L26.667 51.5521ZM28.667 52.3333C28.917 52.3333 29.667 53.3958 29.667 55.3333C29.667 57.2708 28.917 58.3333 28.667 58.3333C28.417 58.3333 27.667 57.2708 27.667 55.3333C27.667 53.3958 28.417 52.3333 28.667 52.3333ZM42.167 54.3333C42.6943 54.3333 43.667 55.8529 43.667 58.3333C43.667 60.8138 42.6943 62.3333 42.167 62.3333C41.6396 62.3333 40.667 60.8138 40.667 58.3333C40.667 55.8529 41.6396 54.3333 42.167 54.3333Z" fill="white"></path></svg> 