<?xml version="1.0" encoding="UTF-8"?> <svg xmlns="http://www.w3.org/2000/svg" width="150" height="150" viewBox="0 0 150 150" fill="none"><circle cx="75" cy="75" r="75" fill="#487498"></circle><path d="M112.905 67.1942C112.335 66.0604 111.127 65.371 109.88 65.4796L106.088 65.7567C101.974 50.8886 88.3577 39.9228 72.1965 39.9228C52.7891 39.9226 37 55.7129 37 75.1188C37 94.5262 52.7891 110.315 72.1962 110.315C83.43 110.315 94.0839 104.88 100.695 95.7789C101.71 94.3788 101.398 92.4244 100.001 91.407C98.6006 90.391 96.6447 90.7068 95.63 92.1003C90.1912 99.5872 81.4313 104.058 72.1947 104.058C56.2371 104.058 43.2564 91.0762 43.2564 75.1198C43.2564 59.1634 56.2373 46.1819 72.195 46.1819C85.047 46.1819 95.9568 54.6098 99.7197 66.2238L97.7451 66.3683C96.484 66.4593 95.4011 67.3052 95.0037 68.5048C94.6047 69.7068 94.9714 71.0294 95.9273 71.8566L101.608 76.7626C102.161 77.6528 103.138 78.2484 104.26 78.2484C104.319 78.2484 104.374 78.2351 104.431 78.2324C104.45 78.2324 104.465 78.2405 104.482 78.2405C104.557 78.2405 104.634 78.2392 104.711 78.2324C105.538 78.1708 106.307 77.7839 106.851 77.1561L112.474 70.645C113.304 69.6881 113.473 68.3239 112.905 67.1942Z" fill="white"></path><path d="M55.6484 86.0233V82.9845L58.4194 80.4801C63.1032 76.2903 65.379 73.8806 65.4444 71.3747C65.4444 69.6251 64.3896 68.241 61.9132 68.241C60.0674 68.241 58.4502 69.1619 57.3284 70.0226L55.9096 66.4244C57.5265 65.2076 60.0324 64.2158 62.9361 64.2158C67.7859 64.2158 70.4577 67.0522 70.4577 70.945C70.4577 74.5404 67.8529 77.4118 64.7511 80.1816L62.7714 81.8308V81.895H70.854V86.0206H55.6484V86.0233Z" fill="white"></path><path d="M82.841 86.0233V80.9083H73.3408V77.6449L81.4556 64.5786H87.5919V77.1482H90.1648V80.9083H87.5919V86.0233H82.841ZM82.841 77.1482V72.3988C82.841 71.1111 82.9067 69.7939 83.0056 68.4071H82.8745C82.1797 69.7939 81.6188 71.0469 80.8947 72.3988L78.0248 77.0825V77.1482H82.841Z" fill="white"></path></svg> 