<?xml version="1.0" encoding="UTF-8"?> <svg xmlns="http://www.w3.org/2000/svg" width="80" height="27" viewBox="0 0 80 27" fill="none"><g clip-path="url(#clip0_75_759)"><path d="M16.5313 9.28247L16.6224 9.59753L16.9363 9.51914L24.6778 7.60118L19.1364 13.2584L18.8992 13.5003L19.1364 13.7423L24.6778 19.3988L16.9363 17.4815L16.6224 17.4031L16.5313 17.7182L14.3358 25.322L12.1404 17.7182L12.0492 17.4031L11.7353 17.4815L3.99316 19.3988L9.53526 13.7423L9.77251 13.5003L9.53526 13.2584L3.99316 7.60118L11.7353 9.51914L12.0492 9.59753L12.1404 9.28247L14.3358 1.67798L16.5313 9.28247Z" fill="#81CFFF" stroke="#303030"></path><path d="M17.9569 10.7934L17.8796 11.1145L18.1947 11.2027L26.1229 13.4148L18.2292 15.737L17.9113 15.8301L17.9943 16.152L20.0501 24.1504L14.0978 18.4443L13.8614 18.2172L13.6262 18.4483L7.7517 24.2397L9.69774 16.2072L9.77566 15.8863L9.45974 15.7983L1.53027 13.5857L9.42549 11.2636L9.74341 11.1703L9.66032 10.8485L7.60457 2.85004L13.5566 8.55666L13.7939 8.78363L14.0285 8.55219L19.9033 2.76025L17.9569 10.7934Z" fill="#81CFFF" stroke="#303030"></path><path d="M32.6123 8.62608V10.2169C32.6123 10.2759 32.6408 10.3053 32.6977 10.3053H33.1931C33.2501 10.3053 33.2786 10.2759 33.2786 10.2169L33.2956 7.86597L31.3652 6.99983C30.9326 6.79948 30.6421 6.59327 30.4941 6.38115C30.3574 6.16904 30.2891 5.84495 30.2891 5.40895V2.52771C30.2891 1.62033 30.477 0.972194 30.8528 0.583319C31.2286 0.19444 31.8379 0 32.6806 0H33.3981C34.1953 0.0353526 34.7647 0.253363 35.1064 0.654024C35.4481 1.0429 35.6189 1.66747 35.6189 2.52771V4.73726L33.2956 4.47211V2.43933C33.2956 2.38041 33.2671 2.35095 33.2102 2.35095H32.6977C32.6408 2.35095 32.6123 2.38041 32.6123 2.43933V5.03775L34.5426 5.9039C34.9754 6.09242 35.2601 6.29869 35.3968 6.52257C35.5449 6.73468 35.6189 7.05876 35.6189 7.49476V10.1285C35.6189 10.9887 35.4481 11.6193 35.1064 12.0199C34.7647 12.4088 34.1953 12.6209 33.3981 12.6562H32.7148C31.8493 12.6562 31.2286 12.4618 30.8528 12.073C30.477 11.6723 30.2891 11.0241 30.2891 10.1285V8.62608H32.6123ZM37.392 12.5148V2.49236H37.0674L37.3066 0.141411H39.7152L41.6627 6.85841V0.141411H43.986V12.5148H41.6627L39.7152 5.79784V12.5148H37.392ZM51.2002 10.0578C51.2002 10.9534 51.0066 11.6016 50.6194 12.0023C50.2436 12.3911 49.6172 12.5855 48.7403 12.5855H47.9886C47.1118 12.5855 46.4797 12.3911 46.0925 12.0023C45.7166 11.6016 45.5287 10.9534 45.5287 10.0578V2.59842C45.5287 1.69104 45.7166 1.0429 46.0925 0.654024C46.4797 0.265145 47.1118 0.0707055 47.9886 0.0707055H48.7403C49.6172 0.0707055 50.2436 0.265145 50.6194 0.654024C51.0066 1.0429 51.2002 1.69104 51.2002 2.59842V10.0578ZM47.9374 2.42166C47.8805 2.42166 47.852 2.45112 47.852 2.51004V10.1462C47.852 10.2052 47.8805 10.2346 47.9374 10.2346H48.7916C48.8485 10.2346 48.877 10.2052 48.877 10.1462V2.51004C48.877 2.45112 48.8485 2.42166 48.7916 2.42166H47.9374ZM52.9911 12.5148V0.141411H55.3142V7.84829L56.2709 1.90904H57.8937L58.7991 7.53011V0.141411H61.1224V12.5148H57.9108L57.0737 5.85087L56.2538 12.5148H52.9911Z" fill="#303030"></path><path d="M30.6132 26.9285V16.7927H30.2891L30.528 14.4152H32.934L34.8794 21.2082V14.4152H37.2001V26.9285H34.8794L32.934 20.1356V26.9285H30.6132ZM44.4066 24.4437C44.4066 25.3495 44.2132 26.0049 43.8264 26.4101C43.451 26.8033 42.8253 27 41.9493 27H41.1985C40.3226 27 39.6911 26.8033 39.3044 26.4101C38.929 26.0049 38.7412 25.3495 38.7412 24.4437V16.9001C38.7412 15.9824 38.929 15.327 39.3044 14.9337C39.6911 14.5404 40.3226 14.3438 41.1985 14.3438H41.9493C42.8253 14.3438 43.451 14.5404 43.8264 14.9337C44.2132 15.327 44.4066 15.9824 44.4066 16.9001V24.4437ZM41.1473 16.7213C41.0905 16.7213 41.062 16.7511 41.062 16.8106V24.5331C41.062 24.5927 41.0905 24.6225 41.1473 24.6225H42.0006C42.0574 24.6225 42.0858 24.5927 42.0858 24.5331V16.8106C42.0858 16.7511 42.0574 16.7213 42.0006 16.7213H41.1473ZM50.1873 26.9285V16.7927H49.8631L50.102 14.4152H51.7061L53.3954 14.3974L54.2143 21.1545L55.0505 14.4152H58.2586V26.9285H55.9378V19.4563L55.0334 25.1409H53.4125L52.5081 19.4563V26.9285H50.1873ZM65.6304 24.4437C65.6304 25.3495 65.4368 26.0049 65.0502 26.4101C64.6748 26.8033 64.0492 27 63.1731 27H62.4223C61.5461 27 60.9147 26.8033 60.5281 26.4101C60.1527 26.0049 59.9651 25.3495 59.9651 24.4437V16.9001C59.9651 15.9824 60.1527 15.327 60.5281 14.9337C60.9147 14.5404 61.5461 14.3438 62.4223 14.3438H63.1731C64.0492 14.3438 64.6748 14.5404 65.0502 14.9337C65.4368 15.327 65.6304 15.9824 65.6304 16.9001V24.4437ZM62.3711 16.7213C62.3141 16.7213 62.2858 16.7511 62.2858 16.8106V24.5331C62.2858 24.5927 62.3141 24.6225 62.3711 24.6225H63.2243C63.2814 24.6225 63.3096 24.5927 63.3096 24.5331V16.8106C63.3096 16.7511 63.2814 16.7213 63.2243 16.7213H62.3711ZM67.4061 26.9285V16.7927H67.0819L67.3208 14.4152H70.4436C71.3197 14.4152 71.9452 14.6179 72.3206 15.0231C72.7078 15.4163 72.9009 16.0658 72.9009 16.9715V21.0473C72.9009 21.9649 72.7132 22.6203 72.3377 23.0136L73.3957 26.9285H71.075L70.1876 23.6036H69.7269V26.9285H67.4061ZM70.4948 16.7927H69.7269V21.226H70.4948C70.5518 21.226 70.5801 21.1963 70.5801 21.1366V16.8822C70.5801 16.8225 70.5518 16.7927 70.4948 16.7927ZM74.6606 26.9285V16.7927H74.3364L74.5753 14.4152H79.4557L79.3192 16.7927H76.9814V19.4742H79.0803L78.9438 21.8517H76.9814V24.551H79.4557L79.3192 26.9285H74.6606Z" fill="#303030"></path></g><defs><clipPath id="clip0_75_759"><rect width="80" height="27" fill="white"></rect></clipPath></defs></svg> 