<?xml version="1.0" encoding="UTF-8"?> <svg xmlns="http://www.w3.org/2000/svg" width="40" height="40" viewBox="0 0 40 40" fill="none"><circle cx="20" cy="20" r="20" fill="#81CFFF"></circle><g clip-path="url(#clip0_53_77)"><path d="M14.7899 28.25H13.7779L14.635 26.4167H15.6479L14.7899 28.25ZM16.6828 30.0834L18.3979 26.4167H17.385L15.6708 30.0834H16.6828ZM19.8618 29.1667L21.1479 26.4167H20.135L18.8489 29.1667H19.8618ZM22.885 26.4167L20.7418 31H21.7538L23.8979 26.4167H22.885ZM25.635 26.4167L24.7779 28.25H25.7899L26.6479 26.4167H25.635ZM30.0836 21.0881C30.0826 20.2036 29.8155 19.3399 29.3168 18.6094C28.8181 17.8789 28.1111 17.3155 27.2877 16.9924C26.8963 15.8019 26.0684 14.8037 24.9708 14.1988C23.8732 13.5938 22.5872 13.427 21.3716 13.7319C21.2563 13.9085 21.1016 14.056 20.9197 14.1627L20.6932 14.2929C20.734 14.5131 20.7205 14.7399 20.6538 14.9538C21.179 14.684 21.7563 14.5307 22.3461 14.5042C22.936 14.4778 23.5246 14.5789 24.0719 14.8006C24.6191 15.0223 25.1121 15.3593 25.5173 15.7889C25.9225 16.2184 26.2302 16.7302 26.4197 17.2894L26.5572 17.6891L26.9513 17.8449C27.7086 18.142 28.3383 18.6943 28.7315 19.4064C29.1248 20.1184 29.257 20.9455 29.1052 21.7447C28.9535 22.5439 28.5273 23.2649 27.9004 23.7832C27.2734 24.3015 26.4851 24.5845 25.6717 24.5834H13.9851C13.4237 24.583 12.8832 24.3709 12.4714 23.9894C12.0596 23.608 11.8068 23.0852 11.7637 22.5255C11.7205 21.9658 11.89 21.4104 12.2385 20.9703C12.5869 20.5302 13.0885 20.2377 13.6432 20.1513C13.4622 20.0087 13.3203 19.8227 13.2307 19.6104C13.1935 19.518 13.1664 19.4218 13.15 19.3235C12.4156 19.5248 11.7791 19.9858 11.3589 20.6209C10.9387 21.256 10.7633 22.022 10.8652 22.7767C10.9671 23.5313 11.3395 24.2234 11.9131 24.7242C12.4867 25.2251 13.2226 25.5008 13.9842 25.5H25.6717C26.8418 25.5 27.964 25.0352 28.7914 24.2078C29.6187 23.3804 30.0836 22.2582 30.0836 21.0881ZM13.7843 17.7542L14.1198 16.502L15.4169 15.7522V18.1667L14.5002 19.0834H15.4169V20H16.3336V19.0834H17.2502L16.3336 18.1667V15.7522L17.6307 16.5011L17.9662 17.7533L18.4245 16.9594L19.7738 17.7386L20.2322 16.9448L18.8828 16.1656L19.3412 15.3718L18.089 15.7073L16.7919 14.9584L18.089 14.2094L19.3412 14.5449L18.8828 13.7511L20.2322 12.9719L19.7738 12.1781L18.4245 12.9573L17.9662 12.1634L17.6307 13.4156L16.3336 14.1645V11.75L17.2502 10.8334H16.3336V9.91669H15.4169V10.8334H14.5002L15.4169 11.75V14.1645L14.1198 13.4156L13.7843 12.1634L13.326 12.9573L11.9767 12.1781L11.5183 12.9719L12.8677 13.7511L12.4093 14.5449L13.6615 14.2094L14.9586 14.9584L13.6615 15.7073L12.4093 15.3718L12.8677 16.1656L11.5183 16.9448L11.9767 17.7386L13.326 16.9594L13.7843 17.7542Z" fill="white"></path></g><defs><clipPath id="clip0_53_77"><rect width="22" height="22" fill="white" transform="translate(9 9)"></rect></clipPath></defs></svg> 