<?xml version="1.0" encoding="UTF-8"?> <svg xmlns="http://www.w3.org/2000/svg" width="40" height="40" viewBox="0 0 40 40" fill="none"><circle cx="20" cy="20" r="20" fill="#81CFFF"></circle><path d="M30.5391 9.24378C30.5328 9.19944 30.5168 9.15726 30.4923 9.12061C30.4679 9.08396 30.4356 9.05385 30.3982 9.03268C30.3604 9.01205 30.3187 9.00088 30.2762 9.00005C30.2337 8.99922 30.1916 9.00874 30.1532 9.02788C24.6249 11.8441 20.7571 14.9324 18.582 18.2457C18.2611 17.9008 15.2142 14.7674 9.3091 13.8678C9.27077 13.8624 9.23179 13.8656 9.19473 13.8773C9.15767 13.8889 9.12339 13.9088 9.09416 13.9355C9.06493 13.9622 9.04141 13.9952 9.02518 14.0323C9.00895 14.0693 9.00036 14.1096 9 14.1504C9 14.2823 9.07864 27.3921 18.6188 30.9631C18.6324 30.9668 18.6462 30.9693 18.6602 30.9707C18.6679 30.9736 18.6758 30.976 18.6838 30.9779H18.6861C18.7266 30.9818 18.9293 31 19.2575 31C20.6771 31 24.4253 30.6642 27.339 27.4151C30.6368 23.7348 31.7155 17.6211 30.5391 9.24378ZM9.55138 14.4853C15.262 15.4535 18.192 18.642 18.2216 18.6742C18.2411 18.6962 18.2702 18.6948 18.2943 18.7087C17.6052 19.8474 17.1153 21.0115 16.8247 22.201C14.5715 18.8488 11.6101 16.3641 11.5791 16.3377C11.5223 16.3012 11.4547 16.2878 11.3892 16.3002C11.3237 16.3126 11.2648 16.3499 11.2235 16.405C11.1822 16.4601 11.1614 16.5292 11.165 16.5993C11.1687 16.6695 11.1965 16.7358 11.2432 16.7858C11.2755 16.8117 14.4319 19.46 16.6643 22.9595C16.0983 26.2675 17.2311 28.8333 17.9611 30.0688C10.4091 26.5645 9.62956 16.4538 9.55138 14.4853ZM26.9508 27.0165C24.0194 30.2919 20.0807 30.4459 19.0134 30.4228C19.2166 28.8396 20.4489 21.2376 25.8185 16.2413C25.85 16.218 25.8765 16.188 25.8962 16.1533C25.9159 16.1185 25.9285 16.0797 25.933 16.0394C25.9376 15.9992 25.934 15.9584 25.9226 15.9197C25.9112 15.881 25.8921 15.8453 25.8667 15.8149C25.8413 15.7845 25.8101 15.7601 25.7751 15.7433C25.7402 15.7265 25.7023 15.7177 25.6638 15.7175C25.6254 15.7173 25.5874 15.7256 25.5523 15.7419C25.5171 15.7583 25.4856 15.7823 25.4599 15.8123C20.3234 20.5937 18.8757 27.6829 18.5338 29.9445C17.8547 28.8381 16.5647 26.1836 17.2397 22.7925C18.1884 18.0265 22.4998 13.6289 30.0582 9.71443C31.12 17.705 30.0754 23.5252 26.9508 27.0165Z" fill="white"></path></svg> 